<svg width="14" height="14" viewBox="0 0 14 14" fill="none" xmlns="http://www.w3.org/2000/svg">
<path d="M5.9375 1.14062L6.65625 0.453125C6.80208 0.307292 6.97917 0.234375 7.1875 0.234375C7.39583 0.234375 7.57292 0.307292 7.71875 0.453125L13.7812 6.51562C13.9271 6.66146 14 6.83854 14 7.04688C14 7.25521 13.9271 7.43229 13.7812 7.57812L7.71875 13.6406C7.57292 13.7865 7.39583 13.8594 7.1875 13.8594C6.97917 13.8594 6.80208 13.7865 6.65625 13.6406L5.9375 12.9531C5.79167 12.8073 5.71875 12.6302 5.71875 12.4219C5.73958 12.2135 5.82292 12.0365 5.96875 11.8906L9.71875 8.29688H0.75C0.541667 8.29688 0.364583 8.22396 0.21875 8.07812C0.0729167 7.93229 0 7.75521 0 7.54688V6.54688C0 6.33854 0.0729167 6.16146 0.21875 6.01562C0.364583 5.86979 0.541667 5.79688 0.75 5.79688H9.71875L5.96875 2.20312C5.82292 2.05729 5.73958 1.88021 5.71875 1.67188C5.71875 1.46354 5.79167 1.28646 5.9375 1.14062Z" fill="#2F3035"/>
</svg>
